<svg width="327" height="375" viewBox="0 0 327 375" fill="none" xmlns="http://www.w3.org/2000/svg">
<path d="M17.4221 14.9203C11.0435 19.9054 6.53265 31.9928 5.07453 37.4134C14.8781 40.1221 34.8489 45.6095 36.3041 45.8894C38.123 46.2393 40.1721 47.738 39.7307 50.2972C39.3777 52.3447 37.2722 53.1044 36.2636 53.2283L2.85632 55.3117C1.8961 63.0594 6.82883 74.6826 9.41522 79.5257C17.0585 74.9546 34.2207 64.3023 41.7234 58.2616C49.226 52.2209 46.1763 45.0384 43.7137 42.2022L17.4221 14.9203Z" fill="white"/>
<path d="M91.578 14.9203C97.9566 19.9054 102.467 31.9928 103.926 37.4134C94.122 40.1221 74.1511 45.6095 72.696 45.8894C70.877 46.2393 68.828 47.738 69.2693 50.2972C69.6224 52.3447 71.7278 53.1044 72.7364 53.2283L106.144 55.3117C107.104 63.0594 102.171 74.6826 99.5848 79.5257C91.9416 74.9546 74.7793 64.3023 67.2767 58.2616C59.7741 52.2209 62.8237 45.0384 65.2864 42.2022L91.578 14.9203Z" fill="white"/>
<path d="M87.5636 93.6636C81.8319 99.3806 69.2813 102.371 63.7226 103.151C62.2402 93.0886 59.2508 72.5945 59.152 71.1159C59.0285 69.2678 57.7932 67.05 55.1991 67.1732C53.1238 67.2717 52.1109 69.2678 51.8638 70.2535L45.6874 103.151C37.8803 103.151 26.9522 96.826 22.464 93.6636C27.9404 86.6406 40.6227 70.9188 47.5403 64.2161C54.4579 57.5134 61.2108 61.4233 63.7226 64.2161L87.5636 93.6636Z" fill="white"/>
<path d="M39.5475 5.08653C48.9326 2.5274 58.8071 2.28992 68.3208 4.39454L70.0303 4.77272L60.7747 31.6478L57.2374 42.8638C56.9896 43.6495 56.2653 44.1859 55.4406 44.1944C54.5747 44.2033 53.7951 43.6656 53.4947 42.8524L39.5475 5.08653Z" fill="white"/>
<path d="M2.25 258L8.55 153H36.6L43.95 213.3L51.3 153H80.25L85.65 258H64.5L62.25 182.1L53.1 258H34.8L25.8 182.1L23.4 258H2.25ZM88.6652 258L99.0152 153H130.965L141.465 258H122.265L121.065 244.95H108.915L107.715 258H88.6652ZM110.565 226.2H119.415L114.915 176.25L110.565 226.2ZM145.09 258V153H165.79V258H145.09ZM135.19 134.7C135.19 126.45 139.84 123.15 145.39 123.15C150.94 123.15 155.59 126.45 155.59 134.7C155.59 142.95 150.94 146.25 145.39 146.25C139.84 146.25 135.19 142.95 135.19 134.7ZM158.14 134.7C158.14 126.45 162.94 123.15 168.34 123.15C173.89 123.15 178.54 126.45 178.54 134.7C178.54 142.95 173.89 146.25 168.34 146.25C162.94 146.25 158.14 142.95 158.14 134.7ZM169.085 258L179.435 153H211.385L221.885 258H202.685L201.485 244.95H189.335L188.135 258H169.085ZM190.985 226.2H199.835L195.335 176.25L190.985 226.2ZM1.8 371L12.15 266H44.1L54.6 371H35.4L34.2 357.95H22.05L20.85 371H1.8ZM23.7 339.2H32.55L28.05 289.25L23.7 339.2ZM85.2598 372.5C66.0598 372.5 55.5598 355.4 55.5598 320C55.5598 281 66.8098 264.5 85.2598 264.5C105.21 264.5 112.86 283.85 113.01 302.9L91.8598 305.45C91.7098 294.8 89.9098 285.95 84.8098 285.95C80.1598 285.95 77.1598 295.85 77.1598 320C77.1598 340.7 80.0098 352.1 85.2598 352.1C89.6098 352.1 91.8598 346.1 92.6098 334.55H84.0598V318.65H113.46V323.45C113.46 353.45 106.41 372.5 85.2598 372.5ZM118.137 371V266H157.587V284.45H139.137V307.7H157.587V324.65H139.137V352.55H157.587V371H118.137ZM162.961 371V266H180.061L196.411 319.7L197.761 324.2H197.911L196.861 307.25V266H217.861V371H200.911L184.411 318.8L183.061 314.3H182.911L183.961 330.8V371H162.961ZM222.698 320C222.698 279.95 239.048 264.5 252.998 264.5C259.448 264.5 265.298 266.45 268.898 269.6V291.05C266.348 288.35 262.898 285.95 258.398 285.95C251.048 285.95 244.298 296.9 244.298 320C244.298 343.1 251.048 352.1 258.398 352.1C262.898 352.1 266.498 349.7 268.898 347.15V367.4C266.198 370.7 259.448 372.5 252.998 372.5C239.048 372.5 222.698 360.05 222.698 320ZM286.534 371V342.2L267.334 266H289.534L296.734 314L303.934 266H326.134L307.084 342.2V371H286.534Z" fill="white"/>
</svg>
