<svg width="1162" height="1117" viewBox="0 0 1162 1117" fill="none" xmlns="http://www.w3.org/2000/svg">
<path d="M282.157 461.791C238.468 387.795 77.8712 -58.2345 3.03394 -272V-253.501C35.396 -156.896 106.795 53.5812 133.493 122.644C166.867 208.972 154.731 227.471 148.663 282.968C143.809 327.365 47.5318 319.966 0 310.716V319.966C23.2602 323.049 79.4893 327.365 118.324 319.966C166.867 310.716 182.037 326.132 209.342 347.714C231.186 364.98 311.485 517.288 348.903 591.284C432.842 705.36 607.395 942.763 634.094 979.761C660.793 1016.76 629.037 1124.67 609.822 1174H1158.97V1010.59C1119.52 985.927 1080.08 788.606 1086.15 720.776C1092.22 652.947 1070.98 585.117 1058.85 495.706C1046.71 406.294 1055.81 344.631 1070.98 313.8C1083.12 289.134 1134.69 258.303 1158.97 245.97L1162 233.638C1149.86 239.804 1114.67 261.386 1070.98 298.384C1016.37 344.631 1046.71 569.701 1070.98 668.362C1095.25 767.023 1010.3 881.1 995.133 908.849C979.963 936.597 837.368 958.179 773.655 973.595C709.943 989.011 737.248 973.595 667.467 958.179C597.687 942.763 336.768 554.286 282.157 461.791Z" fill="#29231B" fill-opacity="0.06"/>
</svg>
